# MagicaVoxel @ Ephtracy

# group
o 

# material
mtllib ShelfOBJ.mtl
usemtl palette

# normals
vn -1 0 0
vn 1 0 0
vn 0 0 1
vn 0 0 -1
vn 0 -1 0
vn 0 1 0

# texcoords
vt 0.876953 0.5
vt 0.880859 0.5
vt 0.884766 0.5
vt 0.912109 0.5
vt 0.916016 0.5

# verts
v -1.5 -0.7 0.7
v -1.5 -0.7 -0.7
v -1.5 0.8 0.7
v -1.5 0.8 -0.7
v -1.4 -0.8 0.6
v -1.4 -0.8 0.5
v -1.4 -0.8 -0.5
v -1.4 -0.8 -0.6
v -1.4 -0.7 0.6
v -1.4 -0.7 0.5
v -1.4 -0.7 -0.5
v -1.4 -0.7 -0.6
v -1.3 -0.5 0.7
v -1.3 -0.5 0.6
v -1.3 -0.2 0.7
v -1.3 -0.2 0.6
v -1.3 -0.1 0.7
v -1.3 -0.1 0.6
v -1.3 0.2 0.7
v -1.3 0.2 0.6
v -1.3 0.3 0.7
v -1.3 0.3 0.6
v -1.3 0.6 0.7
v -1.3 0.6 0.6
v -0.8 -0.4 0.8
v -0.8 -0.4 0.7
v -0.8 -0.3 0.8
v -0.8 -0.3 0.7
v -0.8 0 0.8
v -0.8 0 0.7
v -0.8 0.1 0.8
v -0.8 0.1 0.7
v -0.8 0.4 0.8
v -0.8 0.4 0.7
v -0.8 0.5 0.8
v -0.8 0.5 0.7
v 0.1 -0.5 0.7
v 0.1 -0.5 0.6
v 0.1 -0.2 0.7
v 0.1 -0.2 0.6
v 0.1 -0.1 0.7
v 0.1 -0.1 0.6
v 0.1 0.2 0.7
v 0.1 0.2 0.6
v 0.1 0.3 0.7
v 0.1 0.3 0.6
v 0.1 0.6 0.7
v 0.1 0.6 0.6
v 0.6 -0.4 0.8
v 0.6 -0.4 0.7
v 0.6 -0.3 0.8
v 0.6 -0.3 0.7
v 0.6 0 0.8
v 0.6 0 0.7
v 0.6 0.1 0.8
v 0.6 0.1 0.7
v 0.6 0.4 0.8
v 0.6 0.4 0.7
v 0.6 0.5 0.8
v 0.6 0.5 0.7
v 1.3 -0.8 0.6
v 1.3 -0.8 0.5
v 1.3 -0.8 -0.5
v 1.3 -0.8 -0.6
v 1.3 -0.7 0.6
v 1.3 -0.7 0.5
v 1.3 -0.7 -0.5
v 1.3 -0.7 -0.6
v 1.4 -0.6 0.7
v 1.4 -0.6 0.6
v 1.4 0.7 0.7
v 1.4 0.7 0.6
v -1.4 -0.6 0.7
v -1.4 -0.6 0.6
v -1.4 0.7 0.7
v -1.4 0.7 0.6
v -1.3 -0.8 0.6
v -1.3 -0.8 0.5
v -1.3 -0.8 -0.5
v -1.3 -0.8 -0.6
v -1.3 -0.7 0.6
v -1.3 -0.7 0.5
v -1.3 -0.7 -0.5
v -1.3 -0.7 -0.6
v -0.6 -0.4 0.8
v -0.6 -0.4 0.7
v -0.6 -0.3 0.8
v -0.6 -0.3 0.7
v -0.6 0 0.8
v -0.6 0 0.7
v -0.6 0.1 0.8
v -0.6 0.1 0.7
v -0.6 0.4 0.8
v -0.6 0.4 0.7
v -0.6 0.5 0.8
v -0.6 0.5 0.7
v -0.1 -0.5 0.7
v -0.1 -0.5 0.6
v -0.1 -0.2 0.7
v -0.1 -0.2 0.6
v -0.1 -0.1 0.7
v -0.1 -0.1 0.6
v -0.1 0.2 0.7
v -0.1 0.2 0.6
v -0.1 0.3 0.7
v -0.1 0.3 0.6
v -0.1 0.6 0.7
v -0.1 0.6 0.6
v 0.8 -0.4 0.8
v 0.8 -0.4 0.7
v 0.8 -0.3 0.8
v 0.8 -0.3 0.7
v 0.8 0 0.8
v 0.8 0 0.7
v 0.8 0.1 0.8
v 0.8 0.1 0.7
v 0.8 0.4 0.8
v 0.8 0.4 0.7
v 0.8 0.5 0.8
v 0.8 0.5 0.7
v 1.3 -0.5 0.7
v 1.3 -0.5 0.6
v 1.3 -0.2 0.7
v 1.3 -0.2 0.6
v 1.3 -0.1 0.7
v 1.3 -0.1 0.6
v 1.3 0.2 0.7
v 1.3 0.2 0.6
v 1.3 0.3 0.7
v 1.3 0.3 0.6
v 1.3 0.6 0.7
v 1.3 0.6 0.6
v 1.4 -0.8 0.6
v 1.4 -0.8 0.5
v 1.4 -0.8 -0.5
v 1.4 -0.8 -0.6
v 1.4 -0.7 0.6
v 1.4 -0.7 0.5
v 1.4 -0.7 -0.5
v 1.4 -0.7 -0.6
v 1.5 -0.7 0.7
v 1.5 -0.7 -0.7
v 1.5 0.8 0.7
v 1.5 0.8 -0.7
v -0.8 -0.4 0.8
v -0.8 -0.3 0.8
v -0.8 0 0.8
v -0.8 0.1 0.8
v -0.8 0.4 0.8
v -0.8 0.5 0.8
v -0.6 -0.4 0.8
v -0.6 -0.3 0.8
v -0.6 0 0.8
v -0.6 0.1 0.8
v -0.6 0.4 0.8
v -0.6 0.5 0.8
v 0.6 -0.4 0.8
v 0.6 -0.3 0.8
v 0.6 0 0.8
v 0.6 0.1 0.8
v 0.6 0.4 0.8
v 0.6 0.5 0.8
v 0.8 -0.4 0.8
v 0.8 -0.3 0.8
v 0.8 0 0.8
v 0.8 0.1 0.8
v 0.8 0.4 0.8
v 0.8 0.5 0.8
v -1.5 -0.7 0.7
v -1.5 0.8 0.7
v -1.4 -0.6 0.7
v -1.4 0.7 0.7
v -1.3 -0.5 0.7
v -1.3 -0.2 0.7
v -1.3 -0.1 0.7
v -1.3 0.2 0.7
v -1.3 0.3 0.7
v -1.3 0.6 0.7
v -0.8 -0.4 0.7
v -0.8 -0.3 0.7
v -0.8 0 0.7
v -0.8 0.1 0.7
v -0.8 0.4 0.7
v -0.8 0.5 0.7
v -0.6 -0.4 0.7
v -0.6 -0.3 0.7
v -0.6 0 0.7
v -0.6 0.1 0.7
v -0.6 0.4 0.7
v -0.6 0.5 0.7
v -0.1 -0.5 0.7
v -0.1 -0.2 0.7
v -0.1 -0.1 0.7
v -0.1 0.2 0.7
v -0.1 0.3 0.7
v -0.1 0.6 0.7
v 0.1 -0.5 0.7
v 0.1 -0.2 0.7
v 0.1 -0.1 0.7
v 0.1 0.2 0.7
v 0.1 0.3 0.7
v 0.1 0.6 0.7
v 0.6 -0.4 0.7
v 0.6 -0.3 0.7
v 0.6 0 0.7
v 0.6 0.1 0.7
v 0.6 0.4 0.7
v 0.6 0.5 0.7
v 0.8 -0.4 0.7
v 0.8 -0.3 0.7
v 0.8 0 0.7
v 0.8 0.1 0.7
v 0.8 0.4 0.7
v 0.8 0.5 0.7
v 1.3 -0.5 0.7
v 1.3 -0.2 0.7
v 1.3 -0.1 0.7
v 1.3 0.2 0.7
v 1.3 0.3 0.7
v 1.3 0.6 0.7
v 1.4 -0.6 0.7
v 1.4 0.7 0.7
v 1.5 -0.7 0.7
v 1.5 0.8 0.7
v -1.4 -0.8 0.6
v -1.4 -0.7 0.6
v -1.4 -0.6 0.6
v -1.4 0.7 0.6
v -1.3 -0.8 0.6
v -1.3 -0.7 0.6
v -1.3 -0.5 0.6
v -1.3 -0.2 0.6
v -1.3 -0.1 0.6
v -1.3 0.2 0.6
v -1.3 0.3 0.6
v -1.3 0.6 0.6
v -0.1 -0.5 0.6
v -0.1 -0.2 0.6
v -0.1 -0.1 0.6
v -0.1 0.2 0.6
v -0.1 0.3 0.6
v -0.1 0.6 0.6
v 0.1 -0.5 0.6
v 0.1 -0.2 0.6
v 0.1 -0.1 0.6
v 0.1 0.2 0.6
v 0.1 0.3 0.6
v 0.1 0.6 0.6
v 1.3 -0.8 0.6
v 1.3 -0.7 0.6
v 1.3 -0.5 0.6
v 1.3 -0.2 0.6
v 1.3 -0.1 0.6
v 1.3 0.2 0.6
v 1.3 0.3 0.6
v 1.3 0.6 0.6
v 1.4 -0.8 0.6
v 1.4 -0.7 0.6
v 1.4 -0.6 0.6
v 1.4 0.7 0.6
v -1.4 -0.8 -0.5
v -1.4 -0.7 -0.5
v -1.3 -0.8 -0.5
v -1.3 -0.7 -0.5
v 1.3 -0.8 -0.5
v 1.3 -0.7 -0.5
v 1.4 -0.8 -0.5
v 1.4 -0.7 -0.5
v -1.4 -0.8 0.5
v -1.4 -0.7 0.5
v -1.3 -0.8 0.5
v -1.3 -0.7 0.5
v 1.3 -0.8 0.5
v 1.3 -0.7 0.5
v 1.4 -0.8 0.5
v 1.4 -0.7 0.5
v -1.4 -0.8 -0.6
v -1.4 -0.7 -0.6
v -1.3 -0.8 -0.6
v -1.3 -0.7 -0.6
v 1.3 -0.8 -0.6
v 1.3 -0.7 -0.6
v 1.4 -0.8 -0.6
v 1.4 -0.7 -0.6
v -1.5 -0.7 -0.7
v -1.5 0.8 -0.7
v -1.4 -0.6 -0.7
v -1.4 0.7 -0.7
v 1.4 -0.6 -0.7
v 1.4 0.7 -0.7
v 1.5 -0.7 -0.7
v 1.5 0.8 -0.7
v -1.4 -0.8 0.6
v -1.3 -0.8 0.6
v 1.3 -0.8 0.6
v 1.4 -0.8 0.6
v -1.4 -0.8 0.5
v -1.3 -0.8 0.5
v 1.3 -0.8 0.5
v 1.4 -0.8 0.5
v -1.4 -0.8 -0.5
v -1.3 -0.8 -0.5
v 1.3 -0.8 -0.5
v 1.4 -0.8 -0.5
v -1.4 -0.8 -0.6
v -1.3 -0.8 -0.6
v 1.3 -0.8 -0.6
v 1.4 -0.8 -0.6
v -1.5 -0.7 0.7
v 1.5 -0.7 0.7
v -1.4 -0.7 0.6
v -1.3 -0.7 0.6
v 1.3 -0.7 0.6
v 1.4 -0.7 0.6
v -1.4 -0.7 0.5
v -1.3 -0.7 0.5
v 1.3 -0.7 0.5
v 1.4 -0.7 0.5
v -1.4 -0.7 -0.5
v -1.3 -0.7 -0.5
v 1.3 -0.7 -0.5
v 1.4 -0.7 -0.5
v -1.4 -0.7 -0.6
v -1.3 -0.7 -0.6
v 1.3 -0.7 -0.6
v 1.4 -0.7 -0.6
v -1.5 -0.7 -0.7
v 1.5 -0.7 -0.7
v -1.3 -0.5 0.7
v -0.1 -0.5 0.7
v 0.1 -0.5 0.7
v 1.3 -0.5 0.7
v -1.3 -0.5 0.6
v -0.1 -0.5 0.6
v 0.1 -0.5 0.6
v 1.3 -0.5 0.6
v -0.8 -0.4 0.8
v -0.6 -0.4 0.8
v 0.6 -0.4 0.8
v 0.8 -0.4 0.8
v -0.8 -0.4 0.7
v -0.6 -0.4 0.7
v 0.6 -0.4 0.7
v 0.8 -0.4 0.7
v -1.3 -0.1 0.7
v -0.1 -0.1 0.7
v 0.1 -0.1 0.7
v 1.3 -0.1 0.7
v -1.3 -0.1 0.6
v -0.1 -0.1 0.6
v 0.1 -0.1 0.6
v 1.3 -0.1 0.6
v -0.8 0 0.8
v -0.6 0 0.8
v 0.6 0 0.8
v 0.8 0 0.8
v -0.8 0 0.7
v -0.6 0 0.7
v 0.6 0 0.7
v 0.8 0 0.7
v -1.3 0.3 0.7
v -0.1 0.3 0.7
v 0.1 0.3 0.7
v 1.3 0.3 0.7
v -1.3 0.3 0.6
v -0.1 0.3 0.6
v 0.1 0.3 0.6
v 1.3 0.3 0.6
v -0.8 0.4 0.8
v -0.6 0.4 0.8
v 0.6 0.4 0.8
v 0.8 0.4 0.8
v -0.8 0.4 0.7
v -0.6 0.4 0.7
v 0.6 0.4 0.7
v 0.8 0.4 0.7
v -1.4 0.7 0.7
v 1.4 0.7 0.7
v -1.4 0.7 0.6
v 1.4 0.7 0.6
v -1.4 -0.6 0.7
v 1.4 -0.6 0.7
v -1.4 -0.6 0.6
v 1.4 -0.6 0.6
v -0.8 -0.3 0.8
v -0.6 -0.3 0.8
v 0.6 -0.3 0.8
v 0.8 -0.3 0.8
v -0.8 -0.3 0.7
v -0.6 -0.3 0.7
v 0.6 -0.3 0.7
v 0.8 -0.3 0.7
v -1.3 -0.2 0.7
v -0.1 -0.2 0.7
v 0.1 -0.2 0.7
v 1.3 -0.2 0.7
v -1.3 -0.2 0.6
v -0.1 -0.2 0.6
v 0.1 -0.2 0.6
v 1.3 -0.2 0.6
v -0.8 0.1 0.8
v -0.6 0.1 0.8
v 0.6 0.1 0.8
v 0.8 0.1 0.8
v -0.8 0.1 0.7
v -0.6 0.1 0.7
v 0.6 0.1 0.7
v 0.8 0.1 0.7
v -1.3 0.2 0.7
v -0.1 0.2 0.7
v 0.1 0.2 0.7
v 1.3 0.2 0.7
v -1.3 0.2 0.6
v -0.1 0.2 0.6
v 0.1 0.2 0.6
v 1.3 0.2 0.6
v -0.8 0.5 0.8
v -0.6 0.5 0.8
v 0.6 0.5 0.8
v 0.8 0.5 0.8
v -0.8 0.5 0.7
v -0.6 0.5 0.7
v 0.6 0.5 0.7
v 0.8 0.5 0.7
v -1.3 0.6 0.7
v -0.1 0.6 0.7
v 0.1 0.6 0.7
v 1.3 0.6 0.7
v -1.3 0.6 0.6
v -0.1 0.6 0.6
v 0.1 0.6 0.6
v 1.3 0.6 0.6
v -1.5 0.8 0.7
v 1.5 0.8 0.7
v -1.5 0.8 -0.7
v 1.5 0.8 -0.7

# faces
f 3/1/1 2/1/1 1/1/1
f 4/1/1 2/1/1 3/1/1
f 9/5/1 6/5/1 5/5/1
f 10/5/1 6/5/1 9/5/1
f 11/5/1 8/5/1 7/5/1
f 12/5/1 8/5/1 11/5/1
f 15/1/1 14/1/1 13/1/1
f 16/1/1 14/1/1 15/1/1
f 19/1/1 18/1/1 17/1/1
f 20/1/1 18/1/1 19/1/1
f 23/1/1 22/1/1 21/1/1
f 24/1/1 22/1/1 23/1/1
f 27/4/1 26/4/1 25/4/1
f 28/4/1 26/4/1 27/4/1
f 31/4/1 30/4/1 29/4/1
f 32/4/1 30/4/1 31/4/1
f 35/4/1 34/4/1 33/4/1
f 36/4/1 34/4/1 35/4/1
f 39/1/1 38/1/1 37/1/1
f 40/1/1 38/1/1 39/1/1
f 43/1/1 42/1/1 41/1/1
f 44/1/1 42/1/1 43/1/1
f 47/1/1 46/1/1 45/1/1
f 48/1/1 46/1/1 47/1/1
f 51/4/1 50/4/1 49/4/1
f 52/4/1 50/4/1 51/4/1
f 55/4/1 54/4/1 53/4/1
f 56/4/1 54/4/1 55/4/1
f 59/4/1 58/4/1 57/4/1
f 60/4/1 58/4/1 59/4/1
f 65/5/1 62/5/1 61/5/1
f 66/5/1 62/5/1 65/5/1
f 67/5/1 64/5/1 63/5/1
f 68/5/1 64/5/1 67/5/1
f 71/1/1 70/1/1 69/1/1
f 72/1/1 70/1/1 71/1/1
f 73/1/2 74/1/2 75/1/2
f 75/1/2 74/1/2 76/1/2
f 77/5/2 78/5/2 81/5/2
f 81/5/2 78/5/2 82/5/2
f 79/5/2 80/5/2 83/5/2
f 83/5/2 80/5/2 84/5/2
f 85/4/2 86/4/2 87/4/2
f 87/4/2 86/4/2 88/4/2
f 89/4/2 90/4/2 91/4/2
f 91/4/2 90/4/2 92/4/2
f 93/4/2 94/4/2 95/4/2
f 95/4/2 94/4/2 96/4/2
f 97/1/2 98/1/2 99/1/2
f 99/1/2 98/1/2 100/1/2
f 101/1/2 102/1/2 103/1/2
f 103/1/2 102/1/2 104/1/2
f 105/1/2 106/1/2 107/1/2
f 107/1/2 106/1/2 108/1/2
f 109/4/2 110/4/2 111/4/2
f 111/4/2 110/4/2 112/4/2
f 113/4/2 114/4/2 115/4/2
f 115/4/2 114/4/2 116/4/2
f 117/4/2 118/4/2 119/4/2
f 119/4/2 118/4/2 120/4/2
f 121/1/2 122/1/2 123/1/2
f 123/1/2 122/1/2 124/1/2
f 125/1/2 126/1/2 127/1/2
f 127/1/2 126/1/2 128/1/2
f 129/1/2 130/1/2 131/1/2
f 131/1/2 130/1/2 132/1/2
f 133/5/2 134/5/2 137/5/2
f 137/5/2 134/5/2 138/5/2
f 135/5/2 136/5/2 139/5/2
f 139/5/2 136/5/2 140/5/2
f 141/1/2 142/1/2 143/1/2
f 143/1/2 142/1/2 144/1/2
f 151/4/3 146/4/3 145/4/3
f 152/4/3 146/4/3 151/4/3
f 153/4/3 148/4/3 147/4/3
f 154/4/3 148/4/3 153/4/3
f 155/4/3 150/4/3 149/4/3
f 156/4/3 150/4/3 155/4/3
f 163/4/3 158/4/3 157/4/3
f 164/4/3 158/4/3 163/4/3
f 165/4/3 160/4/3 159/4/3
f 166/4/3 160/4/3 165/4/3
f 167/4/3 162/4/3 161/4/3
f 168/4/3 162/4/3 167/4/3
f 171/1/3 170/1/3 169/1/3
f 172/1/3 170/1/3 171/1/3
f 179/1/3 174/1/3 173/1/3
f 180/1/3 174/1/3 179/1/3
f 181/1/3 176/1/3 175/1/3
f 182/1/3 176/1/3 181/1/3
f 183/1/3 178/1/3 177/1/3
f 184/1/3 178/1/3 183/1/3
f 185/1/3 179/1/3 173/1/3
f 186/1/3 174/1/3 180/1/3
f 187/1/3 181/1/3 175/1/3
f 188/1/3 176/1/3 182/1/3
f 189/1/3 183/1/3 177/1/3
f 190/1/3 178/1/3 184/1/3
f 191/1/3 185/1/3 173/1/3
f 191/1/3 186/1/3 185/1/3
f 192/1/3 174/1/3 186/1/3
f 192/1/3 186/1/3 191/1/3
f 193/1/3 187/1/3 175/1/3
f 193/1/3 188/1/3 187/1/3
f 194/1/3 176/1/3 188/1/3
f 194/1/3 188/1/3 193/1/3
f 195/1/3 190/1/3 189/1/3
f 195/1/3 189/1/3 177/1/3
f 196/1/3 178/1/3 190/1/3
f 196/1/3 190/1/3 195/1/3
f 203/1/3 198/1/3 197/1/3
f 204/1/3 198/1/3 203/1/3
f 205/1/3 200/1/3 199/1/3
f 206/1/3 200/1/3 205/1/3
f 207/1/3 202/1/3 201/1/3
f 208/1/3 202/1/3 207/1/3
f 209/1/3 203/1/3 197/1/3
f 210/1/3 198/1/3 204/1/3
f 211/1/3 205/1/3 199/1/3
f 212/1/3 200/1/3 206/1/3
f 213/1/3 207/1/3 201/1/3
f 214/1/3 202/1/3 208/1/3
f 215/1/3 209/1/3 197/1/3
f 215/1/3 210/1/3 209/1/3
f 216/1/3 198/1/3 210/1/3
f 216/1/3 210/1/3 215/1/3
f 217/1/3 211/1/3 199/1/3
f 217/1/3 212/1/3 211/1/3
f 218/1/3 200/1/3 212/1/3
f 218/1/3 212/1/3 217/1/3
f 219/1/3 214/1/3 213/1/3
f 219/1/3 213/1/3 201/1/3
f 220/1/3 202/1/3 214/1/3
f 220/1/3 214/1/3 219/1/3
f 221/1/3 171/1/3 169/1/3
f 222/1/3 170/1/3 172/1/3
f 223/1/3 221/1/3 169/1/3
f 223/1/3 222/1/3 221/1/3
f 224/1/3 170/1/3 222/1/3
f 224/1/3 222/1/3 223/1/3
f 229/5/3 226/5/3 225/5/3
f 230/5/3 226/5/3 229/5/3
f 231/3/3 228/3/3 227/3/3
f 232/3/3 228/3/3 231/3/3
f 233/3/3 228/3/3 232/3/3
f 234/3/3 228/3/3 233/3/3
f 235/3/3 228/3/3 234/3/3
f 236/3/3 228/3/3 235/3/3
f 237/3/3 231/3/3 227/3/3
f 238/3/3 233/3/3 232/3/3
f 239/3/3 233/3/3 238/3/3
f 240/3/3 235/3/3 234/3/3
f 241/3/3 235/3/3 240/3/3
f 242/3/3 228/3/3 236/3/3
f 243/3/3 241/3/3 240/3/3
f 243/3/3 242/3/3 241/3/3
f 243/3/3 239/3/3 238/3/3
f 243/3/3 237/3/3 227/3/3
f 243/3/3 240/3/3 239/3/3
f 243/3/3 238/3/3 237/3/3
f 244/3/3 242/3/3 243/3/3
f 245/3/3 242/3/3 244/3/3
f 246/3/3 242/3/3 245/3/3
f 247/3/3 242/3/3 246/3/3
f 248/3/3 228/3/3 242/3/3
f 248/3/3 242/3/3 247/3/3
f 251/3/3 243/3/3 227/3/3
f 252/3/3 245/3/3 244/3/3
f 253/3/3 245/3/3 252/3/3
f 254/3/3 247/3/3 246/3/3
f 255/3/3 247/3/3 254/3/3
f 256/3/3 228/3/3 248/3/3
f 257/5/3 250/5/3 249/5/3
f 258/5/3 250/5/3 257/5/3
f 259/3/3 253/3/3 252/3/3
f 259/3/3 256/3/3 255/3/3
f 259/3/3 255/3/3 254/3/3
f 259/3/3 251/3/3 227/3/3
f 259/3/3 252/3/3 251/3/3
f 259/3/3 254/3/3 253/3/3
f 260/3/3 228/3/3 256/3/3
f 260/3/3 256/3/3 259/3/3
f 263/5/3 262/5/3 261/5/3
f 264/5/3 262/5/3 263/5/3
f 267/5/3 266/5/3 265/5/3
f 268/5/3 266/5/3 267/5/3
f 269/5/4 270/5/4 271/5/4
f 271/5/4 270/5/4 272/5/4
f 273/5/4 274/5/4 275/5/4
f 275/5/4 274/5/4 276/5/4
f 277/5/4 278/5/4 279/5/4
f 279/5/4 278/5/4 280/5/4
f 281/5/4 282/5/4 283/5/4
f 283/5/4 282/5/4 284/5/4
f 285/1/4 286/1/4 287/1/4
f 287/1/4 286/1/4 288/1/4
f 285/1/4 287/1/4 289/1/4
f 287/2/4 288/2/4 289/2/4
f 288/1/4 286/1/4 290/1/4
f 289/2/4 288/2/4 290/2/4
f 285/1/4 289/1/4 291/1/4
f 289/1/4 290/1/4 291/1/4
f 290/1/4 286/1/4 292/1/4
f 291/1/4 290/1/4 292/1/4
f 297/5/5 294/5/5 293/5/5
f 298/5/5 294/5/5 297/5/5
f 299/5/5 296/5/5 295/5/5
f 300/5/5 296/5/5 299/5/5
f 305/5/5 302/5/5 301/5/5
f 306/5/5 302/5/5 305/5/5
f 307/5/5 304/5/5 303/5/5
f 308/5/5 304/5/5 307/5/5
f 311/1/5 310/1/5 309/1/5
f 312/1/5 310/1/5 311/1/5
f 313/1/5 310/1/5 312/1/5
f 314/1/5 310/1/5 313/1/5
f 315/1/5 311/1/5 309/1/5
f 316/1/5 313/1/5 312/1/5
f 317/1/5 313/1/5 316/1/5
f 318/1/5 310/1/5 314/1/5
f 319/1/5 317/1/5 316/1/5
f 319/1/5 318/1/5 317/1/5
f 319/1/5 315/1/5 309/1/5
f 319/1/5 316/1/5 315/1/5
f 320/1/5 318/1/5 319/1/5
f 321/1/5 318/1/5 320/1/5
f 322/1/5 310/1/5 318/1/5
f 322/1/5 318/1/5 321/1/5
f 323/1/5 319/1/5 309/1/5
f 324/1/5 321/1/5 320/1/5
f 325/1/5 321/1/5 324/1/5
f 326/1/5 310/1/5 322/1/5
f 327/1/5 323/1/5 309/1/5
f 327/1/5 326/1/5 325/1/5
f 327/1/5 325/1/5 324/1/5
f 327/1/5 324/1/5 323/1/5
f 328/1/5 310/1/5 326/1/5
f 328/1/5 326/1/5 327/1/5
f 333/1/5 330/1/5 329/1/5
f 334/1/5 330/1/5 333/1/5
f 335/1/5 332/1/5 331/1/5
f 336/1/5 332/1/5 335/1/5
f 341/4/5 338/4/5 337/4/5
f 342/4/5 338/4/5 341/4/5
f 343/4/5 340/4/5 339/4/5
f 344/4/5 340/4/5 343/4/5
f 349/1/5 346/1/5 345/1/5
f 350/1/5 346/1/5 349/1/5
f 351/1/5 348/1/5 347/1/5
f 352/1/5 348/1/5 351/1/5
f 357/4/5 354/4/5 353/4/5
f 358/4/5 354/4/5 357/4/5
f 359/4/5 356/4/5 355/4/5
f 360/4/5 356/4/5 359/4/5
f 365/1/5 362/1/5 361/1/5
f 366/1/5 362/1/5 365/1/5
f 367/1/5 364/1/5 363/1/5
f 368/1/5 364/1/5 367/1/5
f 373/4/5 370/4/5 369/4/5
f 374/4/5 370/4/5 373/4/5
f 375/4/5 372/4/5 371/4/5
f 376/4/5 372/4/5 375/4/5
f 379/1/5 378/1/5 377/1/5
f 380/1/5 378/1/5 379/1/5
f 381/1/6 382/1/6 383/1/6
f 383/1/6 382/1/6 384/1/6
f 385/4/6 386/4/6 389/4/6
f 389/4/6 386/4/6 390/4/6
f 387/4/6 388/4/6 391/4/6
f 391/4/6 388/4/6 392/4/6
f 393/1/6 394/1/6 397/1/6
f 397/1/6 394/1/6 398/1/6
f 395/1/6 396/1/6 399/1/6
f 399/1/6 396/1/6 400/1/6
f 401/4/6 402/4/6 405/4/6
f 405/4/6 402/4/6 406/4/6
f 403/4/6 404/4/6 407/4/6
f 407/4/6 404/4/6 408/4/6
f 409/1/6 410/1/6 413/1/6
f 413/1/6 410/1/6 414/1/6
f 411/1/6 412/1/6 415/1/6
f 415/1/6 412/1/6 416/1/6
f 417/4/6 418/4/6 421/4/6
f 421/4/6 418/4/6 422/4/6
f 419/4/6 420/4/6 423/4/6
f 423/4/6 420/4/6 424/4/6
f 425/1/6 426/1/6 429/1/6
f 429/1/6 426/1/6 430/1/6
f 427/1/6 428/1/6 431/1/6
f 431/1/6 428/1/6 432/1/6
f 433/1/6 434/1/6 435/1/6
f 435/1/6 434/1/6 436/1/6
